<svg viewBox="0 0 32 32" fill="none" xmlns="http://www.w3.org/2000/svg">
<path d="M2 12.1333C2 8.58633 2 6.81283 2.69029 5.45806C3.29749 4.26637 4.26637 3.29749 5.45806 2.69029C6.81283 2 8.58633 2 12.1333 2H19.8667C23.4137 2 25.1872 2 26.5419 2.69029C27.7336 3.29749 28.7025 4.26637 29.3097 5.45806C30 6.81283 30 8.58633 30 12.1333V19.8667C30 23.4137 30 25.1872 29.3097 26.5419C28.7025 27.7336 27.7336 28.7025 26.5419 29.3097C25.1872 30 23.4137 30 19.8667 30H12.1333C8.58633 30 6.81283 30 5.45806 29.3097C4.26637 28.7025 3.29749 27.7336 2.69029 26.5419C2 25.1872 2 23.4137 2 19.8667V12.1333Z" fill="url(#paint0_linear_4_48)"/>
<path d="M8 11C8 9.34315 9.34315 8 11 8V8V16V16C9.34315 16 8 14.6569 8 13V11Z" fill="#CD4821"/>
<path d="M12 11C12 9.34315 13.3431 8 15 8V8V16H12V11Z" fill="#CD4821"/>
<path d="M16 11C16 9.34315 17.3431 8 19 8V8V16V16C17.3431 16 16 14.6569 16 13V11Z" fill="#CD4821"/>
<path d="M20 8V8C21.6569 8 23 9.34315 23 11V13C23 14.6569 21.6569 16 20 16V16V8Z" fill="#CD4821"/>
<path d="M8 17H11V24H8V17Z" fill="#CD4821"/>
<path d="M12 17V17C13.6569 17 15 18.3431 15 20V24H12V17Z" fill="#CD4821"/>
<path d="M22.9332 24.0167H22.2119V19.7057H20.6504V19.1287C20.8541 19.1287 21.0521 19.1145 21.2445 19.0862C21.4368 19.0523 21.6094 18.9929 21.7621 18.908C21.9205 18.8232 22.0535 18.7072 22.161 18.5601C22.2685 18.413 22.342 18.2263 22.3816 18H22.9332V24.0167Z" fill="white"/>
<path d="M17.8953 20.5798C17.9236 20.5854 17.949 20.5883 17.9717 20.5883C18 20.5883 18.0283 20.5883 18.0565 20.5883H18.2093C18.362 20.5883 18.5063 20.5685 18.6421 20.5289C18.7835 20.4836 18.9051 20.4214 19.007 20.3422C19.1145 20.2573 19.1993 20.1526 19.2616 20.0282C19.3238 19.9037 19.3549 19.7623 19.3549 19.6039C19.3549 19.2814 19.2531 19.041 19.0494 18.8826C18.8457 18.7185 18.5912 18.6365 18.2857 18.6365C18.0933 18.6365 17.9236 18.6732 17.7765 18.7468C17.6351 18.8147 17.5163 18.908 17.4201 19.0268C17.3296 19.1456 17.2617 19.2842 17.2164 19.4426C17.1712 19.601 17.1485 19.7679 17.1485 19.9433H16.4272C16.4385 19.6548 16.4838 19.3917 16.563 19.1541C16.6478 18.9165 16.7666 18.7128 16.9194 18.5431C17.0721 18.3734 17.2617 18.2404 17.488 18.1443C17.7199 18.0481 17.9858 18 18.2857 18C18.5459 18 18.7863 18.0339 19.007 18.1018C19.2333 18.1641 19.4285 18.2602 19.5925 18.3904C19.7566 18.5205 19.8839 18.6874 19.9744 18.891C20.0706 19.0947 20.1187 19.3351 20.1187 19.6124C20.1187 19.8839 20.0395 20.1244 19.8811 20.3337C19.7226 20.543 19.5246 20.7014 19.287 20.8089V20.8259C19.6548 20.9051 19.9263 21.0776 20.1017 21.3435C20.2827 21.6094 20.3732 21.9234 20.3732 22.2855C20.3732 22.5853 20.3167 22.8512 20.2035 23.0832C20.096 23.3095 19.9489 23.499 19.7622 23.6518C19.5756 23.8045 19.3549 23.9205 19.1003 23.9997C18.8514 24.0732 18.5855 24.11 18.3026 24.11C17.9971 24.11 17.7199 24.0676 17.471 23.9827C17.2221 23.8979 17.0099 23.7734 16.8345 23.6093C16.6592 23.4396 16.5234 23.2331 16.4272 22.9898C16.3367 22.7466 16.2943 22.4694 16.2999 22.1582H17.0212C17.0325 22.5486 17.1457 22.8682 17.3607 23.1171C17.5757 23.3604 17.8896 23.482 18.3026 23.482C18.478 23.482 18.6449 23.4566 18.8033 23.4057C18.9617 23.3491 19.1003 23.2727 19.2191 23.1765C19.3379 23.0747 19.4313 22.9531 19.4992 22.8116C19.5727 22.6645 19.6095 22.5005 19.6095 22.3194C19.6095 22.1327 19.5756 21.9687 19.5077 21.8272C19.4398 21.6801 19.3493 21.5585 19.2361 21.4623C19.123 21.3605 18.9872 21.287 18.8288 21.2417C18.676 21.1908 18.5091 21.1653 18.3281 21.1653C18.1753 21.1653 18.0311 21.1738 17.8953 21.1908V20.5798Z" fill="white"/>
<defs>
<linearGradient id="paint0_linear_4_48" x1="29.125" y1="29.3" x2="4.0125" y2="3.05" gradientUnits="userSpaceOnUse">
<stop stop-color="#E95728"/>
<stop offset="1" stop-color="#EC7236"/>
</linearGradient>
</defs>
</svg>
