<svg xmlns="http://www.w3.org/2000/svg" width="300" height="129" fill="none" viewBox="0 0 300 129">
  <g clip-path="url(#a)">
    <mask id="b" width="59" height="59" x="0" y="35" maskUnits="userSpaceOnUse" style="mask-type:luminance">
      <path fill="#fff" d="M59 35H0v59h59V35Z"/>
    </mask>
    <g mask="url(#b)">
      <path fill="url(#c)" fill-rule="evenodd" d="M0 35h19.667v19.667H0V35Zm39.333 19.667H19.667v19.666H0V94h19.667V74.333h19.666V94H59V74.333H39.333V54.667Zm0 0H59V35H39.333v19.667Z" clip-rule="evenodd"/>
    </g>
  </g>
  <path fill="#000" d="M109.53 98.37c3.373 0 6.38-.477 9.02-1.43 2.64-1.027 4.693-2.677 6.16-4.95 1.54-2.273 2.31-5.243 2.31-8.91 0-2.86-.623-5.207-1.87-7.04-1.247-1.907-2.897-3.447-4.95-4.62-2.053-1.247-4.4-2.31-7.04-3.19-2.64-.88-5.353-1.723-8.14-2.53-2.86-.88-5.72-1.87-8.58-2.97-2.787-1.1-5.28-2.493-7.48-4.18a19.008 19.008 0 0 1-5.28-6.27c-1.32-2.567-1.98-5.72-1.98-9.46 0-4.033 1.027-7.517 3.08-10.45 2.053-3.007 4.803-5.353 8.25-7.04 3.52-1.687 7.407-2.53 11.66-2.53 4.033 0 7.517.623 10.45 1.87a21.44 21.44 0 0 1 7.59 5.39c2.127 2.347 3.813 5.243 5.06 8.69l-3.85-2.64 1.32-12.21h4.73v20.24h-4.84c-.807-3.447-2.127-6.417-3.96-8.91-1.833-2.493-4.107-4.4-6.82-5.72-2.64-1.393-5.573-2.09-8.8-2.09-3.373 0-6.233.55-8.58 1.65-2.273 1.1-3.997 2.64-5.17 4.62s-1.76 4.363-1.76 7.15c0 2.64.55 4.877 1.65 6.71 1.1 1.76 2.603 3.227 4.51 4.4 1.98 1.173 4.217 2.163 6.71 2.97 2.567.807 5.243 1.613 8.03 2.42 3.08.88 6.05 1.87 8.91 2.97 2.933 1.027 5.573 2.383 7.92 4.07 2.42 1.687 4.327 3.85 5.72 6.49 1.393 2.64 2.09 5.867 2.09 9.68 0 4.767-1.21 8.837-3.63 12.21-2.347 3.373-5.463 5.94-9.35 7.7-3.887 1.76-8.103 2.64-12.65 2.64-4.473 0-8.58-.66-12.32-1.98-3.667-1.393-6.82-3.483-9.46-6.27-2.64-2.787-4.583-6.343-5.83-10.67l3.52 3.08L84.67 102h-5.06V78.02h4.84c1.247 4.473 2.97 8.25 5.17 11.33 2.273 3.007 5.06 5.28 8.36 6.82 3.3 1.467 7.15 2.2 11.55 2.2Zm52.65-78.43V94.3c0 1.613.77 2.677 2.31 3.19 1.613.513 3.666.77 6.16.77h.22V102h-27.39v-3.74h.22c2.493 0 4.546-.257 6.16-.77 1.686-.513 2.53-1.577 2.53-3.19V28.96c0-1.1-.294-1.943-.88-2.53-.587-.587-1.43-1.063-2.53-1.43-1.1-.367-2.53-.697-4.29-.99l-1.21-.22v-3.85h18.7Zm25.378 54.23c0 3.96.476 7.48 1.43 10.56 1.026 3.007 2.42 5.573 4.18 7.7 1.76 2.053 3.813 3.63 6.16 4.73 2.42 1.1 5.06 1.65 7.92 1.65 3.006 0 5.61-.513 7.81-1.54 2.273-1.1 4.216-2.53 5.83-4.29a26.009 26.009 0 0 0 4.18-5.72l3.63 3.08a25.472 25.472 0 0 1-5.39 6.82c-2.127 1.907-4.584 3.373-7.37 4.4-2.787 1.027-5.904 1.54-9.35 1.54-5.28 0-10.12-1.173-14.52-3.52-4.4-2.42-7.92-5.793-10.56-10.12-2.567-4.4-3.85-9.57-3.85-15.51 0-5.867 1.21-11.037 3.63-15.51 2.42-4.473 5.683-7.957 9.79-10.45 4.106-2.493 8.69-3.74 13.75-3.74 3.813 0 7.186.623 10.12 1.87 3.006 1.247 5.536 3.117 7.59 5.61 2.126 2.42 3.74 5.463 4.84 9.13 1.1 3.593 1.65 7.737 1.65 12.43h-44.11l-.11-4.07h37.4l-3.08 1.54c-.074-3.667-.404-6.857-.99-9.57-.587-2.787-1.504-5.097-2.75-6.93-1.174-1.907-2.64-3.337-4.4-4.29-1.76-.953-3.814-1.43-6.16-1.43-2.494 0-4.804.587-6.93 1.76-2.127 1.173-3.96 2.86-5.5 5.06-1.54 2.2-2.75 4.913-3.63 8.14-.807 3.153-1.21 6.71-1.21 10.67ZM298.007 102h-26.29v-3.74h.11c.734 0 1.65-.037 2.75-.11 1.1-.147 2.054-.33 2.86-.55.807-.22 1.21-.44 1.21-.66l-21.56-24.86v-.55l21.67-20.02c0-.587-.403-1.027-1.21-1.32-.806-.367-1.796-.623-2.97-.77-1.173-.22-2.31-.33-3.41-.33h-1.21v-3.74h23.98v3.74h-.22c-1.026 0-2.2.183-3.52.55-1.32.293-2.713.843-4.18 1.65-1.393.733-2.75 1.687-4.07 2.86l-18.04 16.72.66-4.18 24.31 27.5c.954.953 1.98 1.723 3.08 2.31s2.164 1.027 3.19 1.32c1.1.293 2.017.44 2.75.44h.11V102Zm-43.12-82.06v77.22c0 .22.404.403 1.21.55.807.147 1.797.293 2.97.44a63.73 63.73 0 0 0 3.74.11h.11V102h-26.62v-3.74h.11c2.494 0 4.547-.257 6.16-.77 1.687-.513 2.53-1.577 2.53-3.19V28.96c0-1.1-.293-1.943-.88-2.53-.513-.587-1.356-1.063-2.53-1.43-1.1-.367-2.53-.697-4.29-.99l-1.21-.22v-3.85h18.7Z"/>
  <defs>
    <linearGradient id="c" x1="8.113" x2="43.955" y1="40.605" y2="86.478" gradientUnits="userSpaceOnUse">
      <stop stop-color="#F3ACFF"/>
      <stop offset="1" stop-color="#A7B5FF"/>
    </linearGradient>
    <clipPath id="a">
      <path fill="#fff" d="M0 35h59v59H0z"/>
    </clipPath>
  </defs>
</svg>
